<svg width="73" height="72" viewBox="0 0 73 72" fill="none" xmlns="http://www.w3.org/2000/svg">
<path fill-rule="evenodd" clip-rule="evenodd" d="M70.9099 6.66702L60.5306 0.632434C58.4382 -0.584385 56.2915 -0.0198391 55.0728 2.10634L51.9048 7.63196H7.99014C3.60781 7.63196 0 11.5942 0 16.0116V63.9999C0 68.419 3.55347 72 7.93752 72H55.5627C59.9476 71.9991 63.9176 68.3713 63.9176 63.9539V26.9082L72.3718 12.1631C73.5905 10.0369 73.0005 7.88731 70.9099 6.66702ZM59.9234 63.953C59.9234 66.1643 57.7543 68.0021 55.5627 68.0021H7.93752C5.74679 68.0021 3.96833 66.2121 3.96833 64.0008V16.0116C3.96833 13.8003 5.79595 11.6568 7.98927 11.6568H49.5977L45.0911 19.5161H15.9794C14.8754 19.5161 13.9819 20.4177 13.9819 21.5277C13.9819 22.6377 14.8746 23.5383 15.9794 23.5383L42.7857 23.5366L38.1722 31.5836H15.9794C14.8754 31.5836 13.9819 32.486 13.9819 33.596C13.9819 34.706 14.8746 35.6066 15.9794 35.6066H35.8659L32.8895 40.7987L32.8662 43.6519H15.9794C14.8754 43.6519 13.9819 44.5543 13.9819 45.6643C13.9819 46.7742 14.8746 47.6758 15.9794 47.6758H32.8325L32.767 55.7193H15.9794C14.8754 55.7193 13.9819 56.6217 13.9819 57.7317C13.9819 58.8417 14.8746 59.7424 15.9794 59.7424H34.2349C34.7231 59.7424 35.7762 59.3611 36.2144 59.1353L50.1876 50.8555L59.9234 33.8748V63.9513V63.953ZM46.9395 48.4757L36.4998 54.6163L36.5602 42.4411L51.5417 16.3104L61.921 22.3449L46.9395 48.4757ZM67.9127 11.8947L63.9176 18.863L53.5384 12.8284L57.5335 5.85928C58.4667 4.10744 58.5995 4.08399 60.2615 5.12363L67.1813 9.14582C68.8701 10.1429 68.9503 10.0995 67.9118 11.8947H67.9127Z" fill="url(#paint0_linear_157_154)"/>
<defs>
<linearGradient id="paint0_linear_157_154" x1="36.5" y1="0" x2="36.5" y2="72" gradientUnits="userSpaceOnUse">
<stop stop-color="#E2E7BF"/>
<stop offset="0.259777" stop-color="#C7AF73"/>
<stop offset="0.555106" stop-color="#A57B2F"/>
<stop offset="0.800457" stop-color="#AB8D4E"/>
<stop offset="1" stop-color="#8B7744"/>
</linearGradient>
</defs>
</svg>
