<svg width="74" height="64" viewBox="0 0 74 64" fill="none" xmlns="http://www.w3.org/2000/svg">
<path fill-rule="evenodd" clip-rule="evenodd" d="M1.98905 53.133L1.98879 53.1339C1.78085 53.8714 2.00142 54.6645 2.56378 55.1875C2.94971 55.5477 3.45074 55.7361 3.95809 55.7361H3.95899C4.19473 55.7361 4.43047 55.6947 4.65514 55.6136L4.65598 55.6133L15.1538 51.8102C19.8938 54.3838 25.2984 55.7361 30.85 55.7361C32.4477 55.7361 34.0276 55.6256 35.5789 55.4084C37.3786 57.7098 39.7294 59.6307 42.4288 61.0051C45.5266 62.5821 49.0447 63.4131 52.6062 63.4131C56.2497 63.4131 59.5147 62.8135 62.6833 61.1548L69.6549 63.2981C69.8781 63.3771 70.1076 63.414 70.3325 63.414H70.5213L70.5449 63.4022C70.9797 63.3572 71.3972 63.1728 71.7285 62.8645C72.2838 62.3474 72.5068 61.5664 72.3104 60.8358L70.8188 54.0677C72.8292 51.0571 73.5079 47.8414 73.5079 44.3457C73.5079 40.3707 72.1798 36.563 69.6794 33.3401C67.5671 30.6171 64.7548 28.4757 61.488 27.0792C61.3817 23.5693 60.5648 20.1646 59.0588 16.9491C57.5005 13.6232 55.2741 10.6425 52.4475 8.09055C46.661 2.86718 38.9879 0 30.85 0C22.712 0 15.0389 2.86723 9.25239 8.0906C6.42576 10.6426 4.19938 13.6233 2.64114 16.9492C1.0225 20.4041 0.199997 24.0795 0.199997 27.8681C0.199997 33.1796 1.83505 38.3046 4.92973 42.7505L1.98905 53.133ZM61.2441 31.4951C60.8865 34.0044 60.1553 36.4458 59.0588 38.7869C57.5006 42.1128 55.2742 45.0936 52.4475 47.6455C48.9454 50.8074 44.7519 53.1055 40.1828 54.4272C41.3672 55.5846 42.7536 56.5789 44.287 57.3601C46.8039 58.6415 49.6818 59.3225 52.6071 59.3225C55.9262 59.3225 58.7517 58.7383 61.4548 57.1598C61.9716 56.8584 62.5926 56.7983 63.1565 56.9931L67.43 58.2332L66.621 54.1843C66.4604 53.5791 66.5862 52.9323 66.9639 52.431C68.7912 50.0009 69.4154 47.3764 69.4154 44.3466C69.4154 41.3761 68.3922 38.3571 66.4447 35.847C65.0647 34.0685 63.297 32.5913 61.2441 31.4951ZM39.5517 53.7741L39.5516 53.7739C44.1674 52.5052 48.3989 50.2228 51.9114 47.0515C54.6622 44.5681 56.8231 41.6729 58.3344 38.4474C58.4177 38.2695 58.4988 38.091 58.5778 37.912C58.4988 38.0911 58.4177 38.2696 58.3343 38.4476C56.8231 41.6731 54.6622 44.5683 51.9114 47.0517C48.3989 50.223 44.1675 52.5054 39.5517 53.7741ZM35.0324 54.674L35.0325 54.6742C33.6583 54.8478 32.2615 54.9361 30.85 54.9361C25.3046 54.9361 19.9157 53.5546 15.2221 50.9345L4.38349 54.8611C4.24497 54.9111 4.10108 54.9361 3.95899 54.9361H3.95809C3.64798 54.9361 3.34324 54.8209 3.10909 54.6021C3.04915 54.5465 2.99559 54.4857 2.94867 54.421C2.9956 54.4856 3.0492 54.5463 3.1091 54.6019C3.34324 54.8207 3.64799 54.9359 3.9581 54.9359H3.95899C4.10109 54.9359 4.24497 54.9109 4.38349 54.8609L15.2221 50.9343C19.9157 53.5544 25.3047 54.9359 30.85 54.9359C32.2615 54.9359 33.6582 54.8477 35.0324 54.674ZM35.9291 54.5483L35.929 54.5481L35.9292 54.5481L35.9294 54.5482L35.9291 54.5483ZM36.4915 55.2678C38.1776 57.3182 40.3318 59.0397 42.7918 60.2922C45.774 61.8103 49.1673 62.6131 52.6062 62.6131C56.2668 62.6131 59.4828 61.9934 62.6 60.2922L69.908 62.539C70.0465 62.5899 70.1904 62.614 70.3325 62.614L70.3343 62.6131C70.6444 62.6131 70.9491 62.497 71.1833 62.2791C71.2625 62.2054 71.3305 62.1227 71.3868 62.0338C71.3305 62.1226 71.2624 62.2051 71.1832 62.2788C70.9491 62.4967 70.6444 62.6128 70.3342 62.6128L70.3325 62.6137C70.1904 62.6137 70.0465 62.5896 69.908 62.5387L62.6 60.2919C59.4828 61.993 56.2668 62.6128 52.6062 62.6128C49.1673 62.6128 45.774 61.81 42.7918 60.2919C40.3319 59.0394 38.1778 57.318 36.4917 55.2678L36.4915 55.2678ZM67.7455 36.2888C67.5355 35.9715 67.3125 35.6605 67.0768 35.3566C65.5642 33.4071 63.6132 31.8076 61.3503 30.6479L61.3504 30.6476C63.6132 31.8073 65.5642 33.4068 67.0768 35.3563C67.3126 35.6602 67.5355 35.9714 67.7455 36.2888ZM70.6374 52.8485C70.431 53.2027 70.2066 53.5536 69.9631 53.9016L69.9631 53.9019C70.2067 53.5539 70.431 53.2028 70.6374 52.8485ZM5.63639 18.2983C6.98397 15.4342 8.94542 12.8008 11.4597 10.5309C16.6332 5.8605 23.5191 3.28863 30.85 3.28863C38.1809 3.28863 45.0676 5.8605 50.2402 10.5309C51.1443 11.3471 51.9769 12.2104 52.7352 13.1145C51.9769 12.2105 51.1443 11.3473 50.2402 10.5311C45.0676 5.86069 38.1809 3.28882 30.85 3.28882C23.5191 3.28882 16.6332 5.86069 11.4597 10.5311C8.94547 12.8009 6.98399 15.4342 5.63639 18.2983ZM15.3392 47.5216C15.1067 47.5216 14.8704 47.5607 14.6422 47.6435L14.6415 47.6438L7.01463 50.4063L9.13727 42.9109C9.31172 42.2963 9.18845 41.635 8.80404 41.1244C5.84819 37.194 4.29248 32.6117 4.29248 27.8672C4.29248 21.5667 7.01495 15.6215 11.9958 11.125C17.0142 6.59457 23.7059 4.08882 30.85 4.08882C37.9941 4.08882 44.6867 6.59463 49.7042 11.125C54.685 15.6215 57.4074 21.5676 57.4074 27.8672C57.4074 34.1667 54.6849 40.1119 49.7041 44.6085C44.6867 49.1388 37.9941 51.6446 30.85 51.6446C25.6807 51.6446 20.6744 50.3131 16.3712 47.801C16.2959 47.7571 16.2184 47.7184 16.1392 47.6848V47.5216H15.3392ZM41.592 37.7858C41.592 37.0973 41.0335 36.54 40.3454 36.54H14.7386C14.2702 36.54 13.8625 36.7975 13.6495 37.1786C13.8625 36.7973 14.2702 36.5397 14.7386 36.5397H40.3454C41.0335 36.5397 41.5921 37.097 41.5921 37.7855L41.592 37.7858ZM14.7386 39.8312H40.3454C41.4757 39.8312 42.3921 38.9164 42.3921 37.7855C42.3921 36.6542 41.4744 35.7397 40.3454 35.7397H14.7386C13.6083 35.7397 12.6919 36.6546 12.6919 37.7855C12.6919 38.9168 13.6096 39.8312 14.7386 39.8312ZM67.4 53.9998C67.3907 53.9671 67.3828 53.9343 67.3763 53.9013C67.3828 53.9344 67.3907 53.9674 67.4 54.0001L67.4 53.9998ZM48.208 28.6686C48.208 27.9801 47.6494 27.4229 46.9613 27.4229H14.7386C14.133 27.4229 13.6289 27.8533 13.5157 28.425C13.6288 27.8532 14.1329 27.4226 14.7386 27.4226H46.9613C47.6495 27.4226 48.208 27.9798 48.208 28.6683L48.208 28.6686ZM14.7386 30.7141H46.9613C48.0916 30.7141 49.008 29.7992 49.008 28.6683C49.008 27.537 48.0903 26.6226 46.9613 26.6226H14.7386C13.6083 26.6226 12.6919 27.5374 12.6919 28.6683C12.6919 29.7996 13.6096 30.7141 14.7386 30.7141ZM46.9613 20.7962H14.7386C14.0787 20.7962 13.538 20.2838 13.4947 19.6346C13.5379 20.2839 14.0787 20.7964 14.7386 20.7964H46.9613C47.6127 20.7964 48.1467 20.2983 48.2031 19.6621C48.1466 20.2982 47.6127 20.7962 46.9613 20.7962ZM48.2079 19.5666C48.208 19.5613 48.208 19.5559 48.208 19.5506C48.208 19.5506 48.208 19.5505 48.208 19.5504C48.208 19.5558 48.208 19.5612 48.2079 19.5666ZM14.7386 21.5964H46.9613C48.0916 21.5964 49.008 20.6815 49.008 19.5506C49.008 18.4193 48.0903 17.5049 46.9613 17.5049H14.7386C13.6083 17.5049 12.6919 18.4197 12.6919 19.5506C12.6919 20.6819 13.6096 21.5964 14.7386 21.5964ZM8.36753 42.6929C8.38146 42.644 8.39227 42.5945 8.40003 42.5448C8.39227 42.5944 8.38144 42.6438 8.36754 42.6927L8.36753 42.6929Z" fill="url(#paint0_linear_231_2856)"/>
<defs>
<linearGradient id="paint0_linear_231_2856" x1="36.8539" y1="0" x2="36.8539" y2="63.414" gradientUnits="userSpaceOnUse">
<stop stop-color="#E2E7BF"/>
<stop offset="0.259777" stop-color="#C7AF73"/>
<stop offset="0.555106" stop-color="#A57B2F"/>
<stop offset="0.800457" stop-color="#AB8D4E"/>
<stop offset="1" stop-color="#8B7744"/>
</linearGradient>
</defs>
</svg>
