<svg width="77" height="72" viewBox="0 0 77 72" fill="none" xmlns="http://www.w3.org/2000/svg">
<path fill-rule="evenodd" clip-rule="evenodd" d="M70.8112 0.641303L50.4 14.2779H19.1997C8.5962 14.2779 0 20.4881 0 31.1131C0 40.0899 6.10076 46.3593 14.3995 47.9493C14.5073 48.5973 17.4784 67.1897 17.4784 67.1897C17.4784 69.8441 19.6288 72 22.2786 72H29.4789C32.1288 71.999 34.2791 69.8451 34.2791 67.1897L31.2002 47.9483H50.4L70.4381 61.3356C73.7159 63.5258 76.8 60.9482 76.8 57.57V4.65616C76.8 1.658 73.7885 -1.34847 70.8112 0.641303ZM27.0788 67.1897H24.6798C23.3553 67.1897 22.2797 66.1148 22.2797 64.7845L19.5251 47.9483H26.4L29.1556 64.7845C29.1556 66.1138 28.4043 67.1897 27.0799 67.1897H27.0788ZM40.8286 43.139H19.1997C14.4286 43.139 4.80019 41.739 4.80019 31.1141C4.80019 20.4892 14.271 18.9325 19.1997 19.0882H40.8286V43.139ZM50.4 43.139H45.6298V19.0872H50.4V43.139ZM71.9998 56.9199L55.2002 45.5431V16.6831L71.9998 5.30522V56.9199Z" fill="url(#paint0_linear_157_141)"/>
<defs>
<linearGradient id="paint0_linear_157_141" x1="38.4" y1="0" x2="38.4" y2="72" gradientUnits="userSpaceOnUse">
<stop stop-color="#E2E7BF"/>
<stop offset="0.259777" stop-color="#C7AF73"/>
<stop offset="0.555106" stop-color="#A57B2F"/>
<stop offset="0.800457" stop-color="#AB8D4E"/>
<stop offset="1" stop-color="#8B7744"/>
</linearGradient>
</defs>
</svg>
