<svg width="72" height="72" viewBox="0 0 72 72" fill="none" xmlns="http://www.w3.org/2000/svg">
<path fill-rule="evenodd" clip-rule="evenodd" d="M4.64663 7.58642C2.38516 8.23457 0.807068 10.327 0.807068 12.6871H0.800018V65.5885C0.800018 65.7364 0.807068 65.8844 0.821152 66.0323V66.0816C0.82943 66.161 0.839317 66.2398 0.850784 66.3181C1.20167 69.3606 3.81032 71.7109 6.90107 71.7109H45.6912C49.0517 71.7109 51.7852 68.9774 51.7852 65.6169V49.7091C51.7852 48.1522 50.5241 46.8911 48.9672 46.8911C47.4102 46.8911 46.1491 48.1522 46.1491 49.7091V65.6169C46.1491 65.8705 45.9448 66.0748 45.6912 66.0748H23.8163L7.5633 70.6964C7.07719 70.8303 6.58405 70.9007 6.09793 70.9007C5.05527 70.9007 4.02668 70.5907 3.139 69.9919V70.006C2.15993 69.3445 1.44325 68.3887 1.07556 67.2673C1.44532 68.3795 2.1591 69.3273 3.13194 69.9846C4.01962 70.5834 5.0482 70.8934 6.09087 70.8934C6.58403 70.8934 7.07718 70.83 7.55624 70.6891L23.8092 66.0675L30.65 64.1231C32.9185 63.482 34.5036 61.3826 34.5036 59.0225V13.6312H45.6912C45.9448 13.6312 46.1491 13.8355 46.1491 14.0891V29.9969C46.1491 31.5538 47.4102 32.8149 48.9672 32.8149C50.5241 32.8149 51.7852 31.5538 51.7852 29.9969V14.0891C51.7852 10.7286 49.0517 7.99512 45.6912 7.99512H34.5036V6.09991C34.5036 4.42318 33.7357 2.88031 32.3972 1.87287C31.0586 0.858379 29.3607 0.548396 27.7545 1.00633L4.64663 7.58642ZM28.8676 6.55079V58.7618L6.44312 65.1446V12.9336L28.8676 6.55079ZM44.7049 42.6638C43.1479 42.6638 41.8869 41.4027 41.8869 39.8458C41.8869 38.2888 43.1479 37.0277 44.7049 37.0277H56.8506V30.4336C56.8506 29.5952 57.3438 28.8414 58.1046 28.5032C58.8655 28.165 59.7602 28.3059 60.3802 28.8625L70.8069 38.2818C71.2507 38.6833 71.5044 39.254 71.5044 39.8528C71.5044 40.4516 71.2507 41.0223 70.8069 41.4239L60.3802 50.8361C59.9857 51.1954 59.4784 51.3785 58.9641 51.3785C58.6753 51.3785 58.3794 51.3222 58.1046 51.1954C57.3438 50.8572 56.8506 50.0963 56.8506 49.265V42.6708H44.7049V42.6638Z" fill="url(#paint0_linear_157_88)"/>
<defs>
<linearGradient id="paint0_linear_157_88" x1="36.1522" y1="0.799805" x2="36.1522" y2="71.7109" gradientUnits="userSpaceOnUse">
<stop stop-color="#E2E7BF"/>
<stop offset="0.259777" stop-color="#C7AF73"/>
<stop offset="0.555106" stop-color="#A57B2F"/>
<stop offset="0.800457" stop-color="#AB8D4E"/>
<stop offset="1" stop-color="#8B7744"/>
</linearGradient>
</defs>
</svg>
