<svg width="76" height="56" viewBox="0 0 76 56" fill="none" xmlns="http://www.w3.org/2000/svg">
<path d="M61.8737 2.25623C60.7024 0.228824 58.1027 -0.465364 56.0746 0.704749L50.1091 4.14338C48.3789 5.14251 47.5788 7.22429 48.1921 9.11932L38.0402 9.37698C37.6524 9.38644 37.2953 9.51645 37.0044 9.72999L32.3073 12.9078L27.6109 9.48336C28.5473 7.49298 27.7993 5.10784 25.8917 4.00628L19.9254 0.568433C17.8981 -0.60168 15.2976 0.0925083 14.1263 2.11992L0.569168 25.601C-0.602171 27.6292 0.0922768 30.2263 2.12123 31.398L8.08671 34.8366C9.79642 35.8231 11.961 35.5008 13.3073 34.0652L14.7451 35.5796C11.8648 39.6037 13.915 43.1692 18.2047 44.3843C18.9519 47.0822 21.282 48.5226 24.0094 48.4462C24.7014 50.7935 26.7919 52.4702 29.241 52.6144C31.251 56.0483 33.9531 57.0995 37.0068 54.6986C40.1756 56.6803 43.4839 55.2052 45.2472 52.2102C47.4787 51.8493 48.8778 49.9425 49.5999 47.9395C51.5926 47.7039 53.4773 46.9096 54.3018 44.939C57.9341 44.4536 60.3579 40.7967 59.4404 37.2399L62.2529 33.6436C62.8433 34.534 63.7237 35.1368 64.6949 35.3968C65.7409 35.6766 66.898 35.5576 67.9133 34.9721L73.8788 31.5335C75.9077 30.3626 76.6022 27.7647 75.4308 25.7365L61.8737 2.25623ZM10.7329 31.4602C10.6509 31.6028 10.5153 31.699 10.3632 31.7399C10.2087 31.7817 10.0431 31.7675 9.90362 31.6887L9.9052 31.6856L3.94682 28.2469C3.66541 28.0846 3.559 27.7017 3.71823 27.418L17.2793 3.94561C17.4417 3.66431 17.8247 3.55793 18.1085 3.7171L24.0653 7.15889C24.3467 7.32121 24.4531 7.70415 24.2939 7.98782L10.7329 31.4602ZM18.9543 40.8132C17.485 40.3562 16.6022 39.77 17.3896 38.2146C17.7459 37.5109 19.8837 34.3528 20.4457 34.3552C22.1349 34.3615 22.0316 35.9192 21.4775 37.0925C21.1709 37.3833 19.0599 40.3491 18.9543 40.8132ZM24.4697 44.7443C23.4182 44.9358 22.1767 44.7388 21.7699 43.6073C21.4365 42.6791 23.9707 39.1806 25.6331 39.0214C28.7467 38.7228 24.956 44.0423 24.4697 44.7443ZM29.4183 48.9772C28.2856 48.8953 27.4958 47.9986 27.4043 46.8955C28.381 45.485 29.5129 43.4655 31.344 43.3347C34.6294 43.1007 29.9228 48.3941 29.4183 48.9772ZM33.8743 52.3379C33.5314 52.3914 33.0924 52.0132 32.4886 50.9763C32.8464 50.5476 34.4245 48.6951 34.5743 48.2704C34.6223 48.1349 35.9371 48.5281 36.027 48.8977C36.228 49.7274 34.6223 52.2205 33.8743 52.3379ZM39.6908 51.9266C40.3655 50.7935 39.7641 49.9992 39.6072 49.8007C40.282 50.3885 40.9284 50.8415 41.4975 51.1867C41.0158 51.7012 40.4152 52.0637 39.6908 51.9266ZM53.4434 41.3215C50.1651 40.1317 47.7018 37.3817 45.6736 34.6514C44.2477 32.7288 41.3233 34.8965 42.7492 36.8191C44.8483 39.6447 47.3108 42.3521 50.4764 43.9903C50.0019 44.2519 49.2089 44.333 48.6721 44.3716C46.1773 42.8501 44.2697 41.5452 42.2668 39.3878C40.6343 37.6338 37.9669 40.1159 39.5994 41.8691C41.611 44.0352 43.5579 45.4866 46.048 47.0373C45.7753 47.6905 45.2621 48.6148 44.451 48.6242C43.8591 48.4123 41.6701 47.4549 39.6987 44.3441C38.7977 42.9131 36.6182 43.3922 36.3596 45.0312C36.2217 44.9973 36.083 44.9681 35.9442 44.9445C36.7624 41.3396 33.8987 39.1499 30.3894 39.785C30.4643 36.9207 28.3116 35.1967 25.4881 35.3819C25.336 30.9409 19.1198 28.9663 16.8166 32.4885L15.3079 30.822L25.7979 12.6596L29.1077 15.0731L27.4028 16.2267C27.0843 16.4426 26.8557 16.742 26.7272 17.0761L22.7127 27.4739C22.2925 28.5613 22.9184 29.5337 23.9424 29.8953C29.9338 32.0141 34.4781 30.0143 36.8823 24.1377L42.0863 23.4089C45.8793 29.2736 49.4273 34.4812 55.9098 38.1484C56.2992 39.6959 54.8607 41.6792 53.4434 41.3215ZM56.9393 34.534C51.4058 31.1301 48.1944 26.1557 44.6111 20.6022C44.1799 19.9348 43.58 19.5251 42.7374 19.6417L35.3641 20.6739C34.6791 20.7472 34.0658 21.2066 33.8302 21.9007C32.6312 25.4087 30.7449 27.6946 26.825 26.9295L29.9173 18.9152L38.659 13L50.1517 12.7077L60.2862 30.2546L56.9393 34.534ZM72.0532 28.3825L66.0964 31.8242C65.8126 31.9834 65.4295 31.877 65.2671 31.5957L51.7061 8.12413C51.5469 7.84047 51.6533 7.45752 51.9347 7.29521L57.8915 3.85342C58.1753 3.69425 58.5583 3.80062 58.7207 4.08192L72.2818 27.5535C72.441 27.8372 72.3346 28.2201 72.0532 28.3825Z" fill="url(#paint0_linear_157_158)"/>
<defs>
<linearGradient id="paint0_linear_157_158" x1="38" y1="0" x2="38" y2="56" gradientUnits="userSpaceOnUse">
<stop stop-color="#E2E7BF"/>
<stop offset="0.259777" stop-color="#C7AF73"/>
<stop offset="0.555106" stop-color="#A57B2F"/>
<stop offset="0.800457" stop-color="#AB8D4E"/>
<stop offset="1" stop-color="#8B7744"/>
</linearGradient>
</defs>
</svg>
