<svg width="80" height="70" viewBox="0 0 80 70" fill="none" xmlns="http://www.w3.org/2000/svg">
<path d="M78.8269 30.0681L62.1776 17.1019V3.60957C62.1776 1.9385 60.8616 0.607834 59.2089 0.607834C57.5563 0.607834 56.2402 1.9385 56.2402 3.60957V12.491L41.7946 1.22675C40.7234 0.391214 39.2543 0.391214 38.1832 1.22675L1.15083 30.0681C-0.13459 31.0893 -0.379431 32.9461 0.599936 34.2767C1.60991 35.5765 3.44622 35.824 4.76225 34.8338L8.0064 32.2962V66.3984C8.0064 68.0385 9.32242 69.4001 10.9751 69.4001H68.6354C70.288 69.4001 71.6041 68.0694 71.6041 66.3984V31.9868L75.2155 34.8028C75.7664 35.2361 76.3785 35.4217 77.0212 35.4217C77.9087 35.4217 78.7963 35.0194 79.3778 34.2458C80.3878 32.9461 80.1429 31.0584 78.8269 30.0372V30.0681ZM65.6666 63.3966H13.9438V27.6544L39.9889 7.38494L65.6666 27.3759V63.3966Z" fill="url(#paint0_linear_157_15)"/>
<defs>
<linearGradient id="paint0_linear_157_15" x1="40" y1="0.600098" x2="40" y2="69.4001" gradientUnits="userSpaceOnUse">
<stop stop-color="#E2E7BF"/>
<stop offset="0.259777" stop-color="#C7AF73"/>
<stop offset="0.555106" stop-color="#A57B2F"/>
<stop offset="0.800457" stop-color="#AB8D4E"/>
<stop offset="1" stop-color="#8B7744"/>
</linearGradient>
</defs>
</svg>
