<svg width="73" height="71" viewBox="0 0 73 71" fill="none" xmlns="http://www.w3.org/2000/svg">
<path fill-rule="evenodd" clip-rule="evenodd" d="M38.7974 10.5762C38.7974 11.854 37.7643 12.8871 36.4864 12.8871C35.2086 12.8871 34.1754 11.854 34.1754 10.5762V2.31098C34.1754 1.03314 35.2086 0 36.4864 0C37.7643 0 38.7974 1.03314 38.7974 2.31098V10.5762ZM18.1617 20.5001C17.5364 20.5001 16.9654 20.2555 16.5304 19.8204L10.685 13.975C10.2499 13.54 10.0052 12.969 10.0052 12.3437C10.0052 11.7184 10.2499 11.1474 10.685 10.7124C11.12 10.2774 11.6909 10.0327 12.3163 10.0327C12.9416 10.0327 13.5125 10.2774 13.9476 10.7124L19.793 16.5579C20.6902 17.4551 20.6902 18.9232 19.793 19.8204C19.358 20.2555 18.787 20.5001 18.1617 20.5001ZM60.2058 49.2791C59.7487 48.8674 59.1657 48.653 58.5412 48.6857C57.9168 48.7184 57.3594 48.9927 56.9477 49.4498C56.5361 49.907 56.3216 50.49 56.3543 51.1145C56.3871 51.7389 56.6613 52.2963 57.1185 52.7079L63.2618 58.2394C63.719 58.6511 64.302 58.8656 64.9265 58.8328C65.5509 58.8001 66.1083 58.5259 66.52 58.0687C67.369 57.1258 67.2921 55.6596 66.3492 54.8106L60.2058 49.2791ZM10.5762 32.2026C11.854 32.2026 12.8872 33.2358 12.8872 34.5136C12.8872 35.7915 11.854 36.8246 10.5762 36.8246H2.31096C1.03312 36.8246 0 35.7915 0 34.5136C0 33.2358 1.03312 32.2026 2.31096 32.2026H10.5762ZM70.6891 32.2026H62.4239C61.146 32.2026 60.1129 33.2358 60.1129 34.5136C60.1129 35.7915 61.146 36.8246 62.4239 36.8246H70.6891C71.9669 36.8246 73 35.7915 73 34.5136C73 33.2358 71.9669 32.2026 70.6891 32.2026ZM12.767 49.2792C13.2241 48.8675 13.8071 48.6531 14.4316 48.6858C15.056 48.7185 15.6134 48.9928 16.025 49.4499C16.4367 49.9071 16.6512 50.4901 16.6184 51.1146C16.5857 51.739 16.3115 52.2964 15.8543 52.708L9.71096 58.2395C9.25378 58.6512 8.67079 58.8657 8.04632 58.8329C7.42185 58.8002 6.86447 58.526 6.45282 58.0688C5.6038 57.1259 5.68064 55.6597 6.62357 54.8107L12.767 49.2792ZM54.8112 20.5001C55.4366 20.5001 56.0075 20.2555 56.4425 19.8204L62.288 13.975C62.723 13.54 62.9677 12.969 62.9677 12.3437C62.9677 11.7184 62.723 11.1474 62.288 10.7124C61.853 10.2774 61.282 10.0327 60.6567 10.0327C60.0313 10.0327 59.4604 10.2774 59.0254 10.7124L53.1799 16.5579C52.7449 16.9929 52.5002 17.5638 52.5002 18.1891C52.5002 18.8145 52.7449 19.3854 53.1799 19.8204C53.615 20.2555 54.1859 20.5001 54.8112 20.5001ZM19.7657 36.4878C19.7657 27.2166 27.2968 19.6855 36.568 19.6855C45.8391 19.6855 53.3702 27.2166 53.3702 36.4878C53.3702 43.1489 49.5367 50.4896 44.2894 54.2416V67.0565C44.2894 68.0897 43.6097 68.9869 42.6037 69.2587L37.1389 70.6725C36.9486 70.7541 36.7583 70.7541 36.568 70.7541C36.3777 70.7541 36.1874 70.7269 35.997 70.6725L30.5322 69.2587C29.5534 68.9869 28.8466 68.0897 28.8466 67.0565V54.2416C23.5721 50.4896 19.7657 43.1489 19.7657 36.4878ZM36.5544 66.1015L33.3598 65.2893V61.5161H39.749V65.2893L36.5544 66.1015ZM39.7762 53.9969C39.7762 52.9436 39.8578 51.6587 40.755 51.1422C45.2954 48.5321 48.857 42.0885 48.857 36.4606C48.857 29.6908 43.365 24.1988 36.5951 24.1988C29.8253 24.1988 24.3333 29.6908 24.3333 36.4606C24.3333 42.0885 27.895 48.5321 32.4354 51.1422C33.3326 51.6587 33.387 53 33.387 53.9969V58.1176H39.7762V53.9969Z" fill="url(#paint0_linear_212_851)"/>
<defs>
<linearGradient id="paint0_linear_212_851" x1="36.5" y1="0" x2="36.5" y2="70.7541" gradientUnits="userSpaceOnUse">
<stop stop-color="#E2E7BF"/>
<stop offset="0.259777" stop-color="#C7AF73"/>
<stop offset="0.555106" stop-color="#A57B2F"/>
<stop offset="0.800457" stop-color="#AB8D4E"/>
<stop offset="1" stop-color="#8B7744"/>
</linearGradient>
</defs>
</svg>
