<svg width="73" height="73" viewBox="0 0 73 73" fill="none" xmlns="http://www.w3.org/2000/svg">
<path fill-rule="evenodd" clip-rule="evenodd" d="M41.2495 7.46608H52.4998C56.6418 7.46688 60 10.8102 60 14.933V35.5252L68.7606 32.1967C69.6466 31.929 70.9675 31.554 72 32.1966C73.0325 32.8391 73.1395 34.8031 72.7093 35.7046L64.3258 69.2408C63.5561 72.3216 59.8898 73.6085 57.3623 71.6915L49.1387 65.4515L43.3848 70.3319C42.8995 70.7435 42.2164 70.8285 41.6451 70.5482C41.3072 70.3824 41.0464 70.1075 40.8956 69.7791C40.8512 69.702 40.8126 69.6202 40.7807 69.534L36.3509 57.5713L31.7007 56H7.5002C3.35825 56 0 52.6559 0 48.5323V14.9338C0 10.8102 3.35825 7.46608 7.5002 7.46608H18.7497V3.73344C18.7497 1.67247 20.4304 0 22.4998 0H37.4994C39.5696 0 41.2495 1.67247 41.2495 3.73344V7.46608ZM24.1695 52.2666H7.50101C5.43085 52.2666 3.75091 50.5941 3.75091 48.5339V28.0008H23.7749V32.3742C23.7749 34.386 25.4298 36.0359 27.453 36.0359H32.5486C34.5654 36.0359 36.2267 34.382 36.2267 32.3742V28.0008H56.2499V36.95L25.9204 48.4734C24.2534 49.1079 23.678 50.8541 24.1695 52.2666ZM39.5474 56.9883L41.103 61.1893L41.2197 58.5847M39.5474 56.9883L48.2488 51.7613L41.764 57.4439C41.5744 57.61 41.4293 57.8162 41.3366 58.044M45.3479 58.5581L50.0501 62.1262L59.2963 69.1421C59.9968 69.6731 61.0089 69.3151 61.2212 68.4651L65.3275 51.9146L69.4339 35.3641L27.6304 51.2469L37.397 54.5471L61.9172 39.8176C62.6273 39.3911 63.5456 39.577 64.0338 40.2462C64.5219 40.9154 64.4186 41.8466 63.7956 42.3925L54.5718 50.4753L45.3479 58.5581ZM46.5275 63.4702L44.2804 61.7652L44.1123 65.5188L46.5275 63.4702ZM24.3757 3.73425C23.3402 3.73425 22.5006 3.81485 22.5006 4.84412V7.46688H37.5002V4.84574C37.5002 3.81485 36.6606 3.73425 35.626 3.73425H24.3757ZM27.525 23.6991V32.3009H32.4758V23.6991H27.525ZM36.2267 24.2666H56.2499V14.9338C56.2499 12.8728 54.57 11.2003 52.5006 11.2003H7.50101C5.43085 11.2003 3.75091 12.8728 3.75091 14.933V24.2666H23.7749V23.6274C23.7749 21.6099 25.4257 19.9657 27.453 19.9657H32.5486C34.5702 19.9657 36.2267 21.6148 36.2267 23.6274V24.2666Z" fill="url(#paint0_linear_231_2902)"/>
<defs>
<linearGradient id="paint0_linear_231_2902" x1="36.4735" y1="0" x2="36.4735" y2="72.5938" gradientUnits="userSpaceOnUse">
<stop stop-color="#E2E7BF"/>
<stop offset="0.259777" stop-color="#C7AF73"/>
<stop offset="0.555106" stop-color="#A57B2F"/>
<stop offset="0.800457" stop-color="#AB8D4E"/>
<stop offset="1" stop-color="#8B7744"/>
</linearGradient>
</defs>
</svg>
