<svg width="74" height="68" viewBox="0 0 74 68" fill="none" xmlns="http://www.w3.org/2000/svg">
<path fill-rule="evenodd" clip-rule="evenodd" d="M64.7488 9.06595H50.8734V4.53346C50.8734 2.03086 48.8015 0 46.2483 0H27.7488C25.1965 0 23.1236 2.03086 23.1236 4.53346V9.06595H9.24925C4.14184 9.06595 0 13.1267 0 18.1339V58.9321C0 63.9393 4.14184 68 9.25025 68H64.7498C69.8582 67.999 74 63.9402 74 58.9331V18.1319C74 13.1257 69.8582 9.06595 64.7498 9.06497L64.7488 9.06595ZM27.7498 5.88117C27.7498 4.63134 28.7852 4.53346 30.0623 4.53346H43.9377C45.2138 4.53346 46.2493 4.63134 46.2493 5.88313V9.06595H27.7498V5.88117ZM69.3739 58.9321C69.3739 61.4357 67.302 63.4665 64.7488 63.4665H9.25025C6.69705 63.4665 4.62512 61.4357 4.62512 58.9341V34.001H29.3214V39.3116C29.3214 41.7545 31.3624 43.7579 33.8577 43.7579H40.1423C42.6296 43.7579 44.6786 41.7496 44.6786 39.3116V34.001H69.3739V58.9331V58.9321ZM33.9465 39.2225V28.7775H40.0525V39.2225H33.9465ZM69.3739 29.4656H44.6786V28.6894C44.6786 26.2455 42.6356 24.2431 40.1423 24.2431H33.8577C31.3574 24.2431 29.3214 26.2397 29.3214 28.6894V29.4656H4.62413V18.1319C4.62413 15.6303 6.69605 13.5994 9.24925 13.5994H64.7488C67.301 13.5994 69.3729 15.6303 69.3729 18.1329V29.4646L69.3739 29.4656Z" fill="url(#paint0_linear_212_840)"/>
<defs>
<linearGradient id="paint0_linear_212_840" x1="37" y1="0" x2="37" y2="68" gradientUnits="userSpaceOnUse">
<stop stop-color="#E2E7BF"/>
<stop offset="0.259777" stop-color="#C7AF73"/>
<stop offset="0.555106" stop-color="#A57B2F"/>
<stop offset="0.800457" stop-color="#AB8D4E"/>
<stop offset="1" stop-color="#8B7744"/>
</linearGradient>
</defs>
</svg>
