<svg width="72" height="68" viewBox="0 0 72 68" fill="none" xmlns="http://www.w3.org/2000/svg">
<path fill-rule="evenodd" clip-rule="evenodd" d="M55.9599 14.8708L70.9442 26.5555V26.5276C72.1286 27.4479 72.349 29.149 71.44 30.3203C70.9167 31.0174 70.1179 31.38 69.3191 31.38C68.7406 31.38 68.1897 31.2126 67.6939 30.8222L64.4436 28.2845V59.295C64.4436 60.8009 63.2592 62 61.7718 62H43.375V66.3276C43.375 67.2525 42.6375 68 41.725 68H30.275C29.3625 68 28.625 67.2525 28.625 66.3276V62H9.8776C8.39018 62 7.20576 60.773 7.20576 59.295V28.5634L4.28602 30.8501C3.1016 31.7425 1.44892 31.5194 0.539942 30.3481C-0.341488 29.149 -0.121131 27.4758 1.03575 26.5555L34.3648 0.564714C35.3289 -0.188238 36.651 -0.188238 37.6151 0.564714L50.6162 10.7156V2.71202C50.6162 1.20612 51.8006 0.00697174 53.288 0.00697174C54.7755 0.00697174 55.9599 1.20612 55.9599 2.71202V14.8708ZM43.375 56.5899V47.7163C43.375 46.7914 42.6375 46.0439 41.725 46.0439H40.375V40.4314C42.6125 40.5707 44.825 41.1408 48.225 44.3715C48.5375 44.6629 48.9375 44.8276 49.35 44.8276C49.575 44.8276 49.8 44.777 50 44.6883C50.6 44.4222 51 43.8141 51 43.1553V40.1019C51 35.541 47.25 30.6886 43.875 29.1809V29.1682C41.8 28.2434 39.1625 27.7873 35.7875 27.7873H30.9875V26.6724C30.9875 25.7475 30.25 25 29.3375 25H22.65C21.7375 25 21 25.7475 21 26.6724V41.2802C21 42.2051 21.7375 42.9526 22.65 42.9526H29.3375C30.25 42.9526 30.9875 42.2051 30.9875 41.2802V40.368H31.625V46.0312H30.275C29.3625 46.0312 28.625 46.7787 28.625 47.7036V56.5899H12.5494V24.3803L35.99 6.11425L59.1 24.1293V56.5899H43.375ZM31.9375 64.6553H40.075V49.3886H31.9375V64.6553ZM34.925 40.9255V46.0312H37.0625V40.9255H34.925ZM29.3375 37.0233H39.0375L39.025 37.0106C41.9 37.074 44.45 37.34 47.6625 39.5825C47.4 36.6179 44.75 33.2098 42.5375 32.2216C40.9 31.4867 38.6875 31.132 35.7875 31.132H29.3375C28.425 31.132 27.6875 30.3845 27.6875 29.4596V28.3447H24.3V39.5952H27.6875V38.6956C27.6875 37.7708 28.425 37.0233 29.3375 37.0233Z" fill="url(#paint0_linear_212_850)"/>
<defs>
<linearGradient id="paint0_linear_212_850" x1="36" y1="0" x2="36" y2="68" gradientUnits="userSpaceOnUse">
<stop stop-color="#E2E7BF"/>
<stop offset="0.259777" stop-color="#C7AF73"/>
<stop offset="0.555106" stop-color="#A57B2F"/>
<stop offset="0.800457" stop-color="#AB8D4E"/>
<stop offset="1" stop-color="#8B7744"/>
</linearGradient>
</defs>
</svg>
