<svg width="73" height="79" viewBox="0 0 73 79" fill="none" xmlns="http://www.w3.org/2000/svg">
<path fill-rule="evenodd" clip-rule="evenodd" d="M57.4 25.8001C57.4 36.7689 48.3441 45.8001 37 45.8001C25.6559 45.8001 16.6 36.7689 16.6 25.8001C16.6 14.8313 25.6559 5.8001 37 5.8001C48.3441 5.8001 57.4 14.8313 57.4 25.8001ZM48.7803 48.1793C56.991 43.9828 62.6 35.5362 62.6 25.8001C62.6 11.8825 51.1385 0.600098 37 0.600098C22.8615 0.600098 11.4 11.8825 11.4 25.8001C11.4 35.4406 16.8994 43.8167 24.9785 48.0545C11.9609 51.8957 2.23839 61.9735 0.483817 74.2115C0.170298 76.3983 1.99086 78.2 4.2 78.2H69.144C71.3531 78.2 73.1737 76.3983 72.8602 74.2115C71.1243 62.1039 61.5893 52.1107 48.7803 48.1793ZM36.672 51.584C52.3394 51.584 64.5726 61.2189 67.3442 73H5.99983C8.77144 61.2189 21.0046 51.584 36.672 51.584Z" fill="url(#paint0_linear_231_2903)"/>
<defs>
<linearGradient id="paint0_linear_231_2903" x1="36.672" y1="0.600098" x2="36.672" y2="78.2" gradientUnits="userSpaceOnUse">
<stop stop-color="#E2E7BF"/>
<stop offset="0.259777" stop-color="#C7AF73"/>
<stop offset="0.555106" stop-color="#A57B2F"/>
<stop offset="0.800457" stop-color="#AB8D4E"/>
<stop offset="1" stop-color="#8B7744"/>
</linearGradient>
</defs>
</svg>
