<svg width="70" height="66" viewBox="0 0 70 66" fill="none" xmlns="http://www.w3.org/2000/svg">
<path fill-rule="evenodd" clip-rule="evenodd" d="M32.7099 2.08186C33.4308 -0.13697 36.5694 -0.136351 37.2901 2.08186L44.2874 23.6171H66.9309C69.2639 23.6171 70.2332 26.6023 68.3463 27.9732L50.0273 41.2827L57.0245 62.818C57.7455 65.0368 55.2059 66.8811 53.319 65.5102L35 52.2007L16.681 65.5102C14.7936 66.8815 12.2547 65.0362 12.9755 62.818L19.9727 41.2827L1.65373 27.9732C-0.233712 26.6019 0.736759 23.6171 3.06912 23.6171H25.7126L32.7099 2.08186ZM35 10.5666L29.7407 26.7532C29.4184 27.7451 28.494 28.4171 27.4505 28.4171H10.4309L24.2001 38.421C25.0438 39.034 25.3973 40.1208 25.0748 41.1132L19.8155 57.2998L33.5846 47.2959C34.4283 46.6829 35.5712 46.6826 36.4154 47.2959L50.1845 57.2998L44.9252 41.1132C44.6029 40.1213 44.9557 39.0343 45.7999 38.421L59.5691 28.4171H42.5495C41.5066 28.4171 40.5818 27.7457 40.2593 26.7532L35 10.5666Z" fill="url(#paint0_linear_157_95)"/>
<defs>
<linearGradient id="paint0_linear_157_95" x1="35" y1="0.417969" x2="35" y2="65.9811" gradientUnits="userSpaceOnUse">
<stop stop-color="#E2E7BF"/>
<stop offset="0.259777" stop-color="#C7AF73"/>
<stop offset="0.555106" stop-color="#A57B2F"/>
<stop offset="0.800457" stop-color="#AB8D4E"/>
<stop offset="1" stop-color="#8B7744"/>
</linearGradient>
</defs>
</svg>
